<svg height="45" viewBox="0 0 86 45" fill="none" xmlns="http://www.w3.org/2000/svg"><path d="M29.302 3C29.7023 3.00002 30.089 3.14496 30.3906 3.40803C30.6922 3.67109 30.8884 4.03449 30.9428 4.431L30.9583 4.65625V39.9896C30.9582 40.4092 30.7988 40.8132 30.5123 41.1198C30.2258 41.4264 29.8336 41.6129 29.4149 41.6415C28.9963 41.6701 28.5824 41.5387 28.2568 41.2739C27.9313 41.0091 27.7184 40.6306 27.6612 40.2148L27.6458 39.9896V28.9479H22.677C22.2768 28.9479 21.8901 28.803 21.5885 28.5399C21.2869 28.2768 21.0907 27.9134 21.0363 27.5169L21.0208 27.2917V11.2812C21.0208 9.08493 21.8933 6.97856 23.4463 5.42552C24.9993 3.87249 27.1057 3 29.302 3ZM16.052 3C16.4523 3.00002 16.839 3.14496 17.1406 3.40803C17.4422 3.67109 17.6384 4.03449 17.6928 4.431L17.7083 4.65625V13.4896C17.7083 17.8025 14.6166 21.391 10.5312 22.1683V39.9896C10.5311 40.4092 10.3717 40.8132 10.0852 41.1198C9.7987 41.4264 9.40651 41.6129 8.98785 41.6415C8.56919 41.6701 8.15528 41.5387 7.82976 41.2739C7.50423 41.0091 7.29137 40.6306 7.23417 40.2148L7.21871 39.9896V22.1683C5.27673 21.7978 3.51518 20.7866 2.21598 19.2964C0.916783 17.8062 0.155041 15.9233 0.0526679 13.9489L0.041626 13.4896V4.65625C0.0417546 4.23661 0.201166 3.83267 0.487649 3.52604C0.774132 3.21941 1.16633 3.03296 1.58499 3.00436C2.00365 2.97576 2.41755 3.10714 2.74308 3.37196C3.0686 3.63677 3.28147 4.01528 3.33867 4.431L3.35413 4.65625V13.4896C3.35413 15.9629 4.97946 18.0542 7.21871 18.7587V4.65625C7.21884 4.23661 7.37825 3.83267 7.66473 3.52604C7.95122 3.21941 8.34341 3.03296 8.76207 3.00436C9.18073 2.97576 9.59464 3.10714 9.92016 3.37196C10.2457 3.63677 10.4586 4.01528 10.5158 4.431L10.5312 4.65625V18.7565C11.5853 18.4249 12.5157 17.7846 13.2019 16.9184C13.8881 16.0523 14.2987 15.0001 14.3803 13.8981L14.3958 13.4896V4.65625C14.3958 4.21699 14.5703 3.79571 14.8809 3.4851C15.1915 3.1745 15.6128 3 16.052 3ZM27.6458 25.6354V6.59517C26.7377 6.91597 25.9424 7.49378 25.3566 8.2583C24.7709 9.02283 24.42 9.9411 24.3465 10.9014L24.3333 11.2812V25.6354H27.6458Z" fill="#EA4335"></path></svg>